<svg width="199" height="80" viewBox="0 0 199 80" fill="none" xmlns="http://www.w3.org/2000/svg">
<rect x="41" y="1" width="118" height="78" fill="#60EBA4"/>
<path d="M40.4997 1C-15.0624 4.5 -10.5573 78.5 40.4997 80V1Z" fill="#60EBA4"/>
<path d="M158 0C213.562 3.5 209.057 77.5 158 79V0Z" fill="#60EBA4"/>
<circle cx="158" cy="40" r="37.5" stroke="black"/>
<line x1="160" y1="78.5" x2="40" y2="78.5" stroke="black" stroke-width="3"/>
<line x1="161" y1="1.5" x2="41" y2="1.5" stroke="black" stroke-width="3"/>
<line x1="120.5" y1="-1.74358e-10" x2="120.5" y2="80" stroke="black"/>
<path d="M180.5 10L180.5 70" stroke="black"/>
<path d="M189.5 60.5L126.5 60.5" stroke="black"/>
<line x1="40.5" y1="-1.74358e-10" x2="40.5" y2="80" stroke="black"/>
<path d="M40 3C19.5655 3 3 19.5655 3 40C3 60.4345 19.5655 77 40 77V80C17.9086 80 0 62.0914 0 40C0 17.9086 17.9086 0 40 0V3Z" fill="black"/>
<path d="M159 3C179.435 3 196 19.5655 196 40C196 60.4345 179.435 77 159 77V80C181.091 80 199 62.0914 199 40C199 17.9086 181.091 0 159 0V3Z" fill="black"/>
<path d="M126.5 60.5L180.5 9.5" stroke="black"/>
<path d="M80.5 78.5L120.5 2" stroke="black"/>
<path d="M80.5 78.5L40.5 2" stroke="black"/>
<path d="M80.5 79.5V0.5" stroke="black"/>
<path d="M40.5 79.5C72.239 -22.9379 88.209 -23.3952 120.5 79.5" stroke="black"/>
</svg>
